PathFileType	4	(X/Y/Z)	C:/Users/beibeiliu/ov580/test_trc\sequence.17_training_dense_left.trc
DataRate	CameraRate	NumFrames	NumMarkers	Units	OrigDataRate	OrigDataStartFrame	OrigNumFrames
120	120	20	19	mm	120	76	303
Frame#	Time	ThumbCMC			ThumbMCP			ThumbIP			ThumbTip			IndexMCP			IndexPIP			IndexTip			MiddleMCP			MiddlePIP			MiddleTip			RingMCP			RingPIP			RingTip			PinkyMCP			PinkyPIP			PinkyTip			BackHand1			BackHand2			BackHand3	
		X0	Y0	Z0	X1	Y1	Z1	X2	Y2	Z2	X3	Y3	Z3	X4	Y4	Z4	X5	Y5	Z5	X6	Y6	Z6	X7	Y7	Z7	X8	Y8	Z8	X9	Y9	Z9	X10	Y10	Z10	X11	Y11	Z11	X12	Y12	Z12	X13	Y13	Z13	X14	Y14	Z14	X15	Y15	Z15	X16	Y16	Z16	X17	Y17	Z17	X18	Y18	Z18	
75	0.625	-218.173	16.7001	2.64606	-192.384	13.5318	7.3933	-172.241	18.1742	2.87608	-155.513	24.103	1.9038	-176.716	-31.8259	-19.9723	-161.069	-33.9255	4.89326	-177.321	-14.7066	19.1953	-179.177	-46.4079	-11.3223	-168.536	-46.4756	16.2279	-193.158	-23.3217	24.1823	-192.722	-55.4039	6.88776	-185.039	-40.447	28.5982	-210.133	-21.8929	29.4947	-207.63	-58.9927	13.8439	-201.096	-47.249	34.8496	-214.289	-23.552	28.0197	-233.205	-35.587	-11.647	-258.146	-16.6304	-2.2943	-236.931	-6.63317	-14.8395	
76	0.633333	-218.605	15.2528	2.05443	-195.396	16.3287	7.6808	-173.861	16.5974	2.59191	-158.635	28.8706	0.559172	-176.355	-25.2719	-23.2461	-155.413	-30.1587	-1.36493	-172.362	-17.5451	18.823	-176.514	-46.4328	-11.9112	-165.615	-45.8659	15.033	-186.292	-23.9535	25.6375	-189.261	-52.513	3.57625	-184.682	-41.4807	31.0729	-204.948	-25.2073	31.7425	-203.391	-61.6934	16.1419	-197.236	-47.5334	34.3534	-215.074	-23.1019	29.5951	-236.353	-36.3828	-8.13331	-257.411	-26.2816	-2.32239	-234.918	-11.1897	-16.4281	
77	0.641667	-224.75	11.8255	4.4864	-197.326	12.843	7.46654	-176.497	20.9941	3.51958	-163.642	29.7221	0.802758	-180.04	-28.9699	-23.8822	-155.08	-33.5063	-6.91797	-164.587	-19.2372	18.8784	-177.626	-44.4497	-13.1746	-162.428	-43.1061	11.06	-185.904	-25.2536	25.7246	-187.849	-53.476	6.44243	-183.626	-40.2553	30.951	-205.553	-22.9353	31.2064	-199.485	-60.2687	16.1993	-194.419	-43.9402	34.0029	-209.234	-26.2735	28.5212	-236.636	-41.2567	-9.00659	-258.462	-27.2777	1.56927	-237.155	-13.7031	-14.7395	
78	0.65	-226.83	15.7718	5.6816	-198.75	14.0333	7.00761	-180.383	20.5517	3.38572	-165.599	28.8817	-1.11935	-181.758	-28.3042	-24.9063	-157.048	-33.7599	-16.1621	-152.044	-24.4935	10.8718	-183.353	-45.7936	-11.3425	-163.997	-38.8016	14.1934	-184.235	-19.6164	25.0509	-190.545	-52.0099	5.00619	-182.116	-39.2876	31.0954	-201.494	-22.2329	32.9738	-203.392	-59.4089	15.952	-193.842	-41.0955	34.1767	-210.429	-24.0226	29.871	-237.91	-37.8902	-3.80053	-258.068	-27.9501	4.54985	-239.125	-10.48	-10.8545	
79	0.658333	-230.053	13.1026	7.05214	-203.834	17.1432	8.63335	-184.354	26.7044	2.52529	-171.888	35.2673	-1.63741	-187.458	-26.4372	-24.1071	-158.48	-33.3909	-15.9416	-144.318	-25.9343	1.93092	-182.193	-42.1945	-9.68809	-163.557	-34.2357	10.3666	-186.551	-18.0159	26.546	-185.514	-48.0116	7.60647	-182.162	-34.5408	30.209	-202.804	-17.7149	31.4509	-199.962	-57.3029	18.3549	-191.582	-41.4713	35.5229	-209.614	-23.2323	31.2718	-239.445	-40.8733	0.368181	-259.886	-29.6145	5.64945	-243.416	-13.1258	-10.0895	
80	0.666667	-234.816	11.0292	8.5876	-211.302	22.3713	10.3967	-190.202	27.2779	2.09389	-178.719	38.3344	-0.72633	-185.315	-23.9471	-25.1448	-159.219	-27.7244	-18.7652	-139.106	-19.8907	-5.12287	-181.27	-36.7453	-8.63912	-164.318	-26.4193	14.2134	-187.258	-10.3482	26.1066	-187.005	-41.8375	7.28323	-179.975	-26.4755	26.5444	-207.143	-13.3272	28.8047	-194.147	-54.4045	23.6435	-189.71	-34.704	33.051	-211.31	-20.2473	33.7305	-235.105	-46.152	-0.146278	-259.205	-31.0597	10.8932	-246.272	-14.9633	-6.42273	
81	0.675	-239.035	14.1375	9.37729	-213.934	23.7649	10.0995	-196.485	33.9525	2.22609	-186.312	45.2802	-0.278949	-187.688	-16.5503	-24.3593	-163.157	-20.1505	-21.4879	-138.945	-15.9619	-10.1191	-178.978	-27.3427	-10.4101	-163.248	-14.6519	11.2642	-190.552	-7.37577	28.6879	-184.424	-38.0591	9.07726	-179.411	-22.2125	29.5664	-209.606	-11.3501	29.5471	-189.406	-45.419	20.763	-187.944	-28.0336	34.1816	-213.898	-19.3506	36.0244	-233.181	-46.3806	3.55526	-255.632	-39.7367	15.3452	-245.269	-18.2532	-4.04434	
82	0.683333	-241.631	10.9463	11.4942	-220.782	22.7906	13.8681	-200.783	37.1691	4.58869	-191.737	49.2539	-1.02691	-187.396	-9.1029	-26.0526	-163.617	-7.56054	-24.4329	-140.907	-5.6092	-14.987	-180.361	-22.0521	-10.623	-165.087	-7.07386	14.574	-193.12	-3.76575	28.9728	-179.806	-31.5516	8.22308	-178.874	-17.2693	30.5044	-207.165	-9.578	30.6543	-188.112	-44.7572	18.8141	-185.179	-25.8244	36.4025	-209.865	-19.6447	36.7467	-227.178	-43.386	0.0788579	-253.091	-40.6778	13.8748	-246.787	-21.4862	-2.16083	
83	0.691667	-244.305	7.14431	18.1325	-223.708	26.9857	16.5031	-207.107	38.8128	8.02926	-200.467	55.6707	3.04469	-189.671	-0.46029	-24.6525	-163.89	2.71749	-24.0441	-142.137	9.39864	-17.788	-174.437	-14.685	-9.25469	-164.719	-3.18199	15.6905	-191.605	-2.69977	30.2092	-177.84	-25.4646	6.15709	-176.598	-11.8667	29.9166	-206.465	-12.1723	34.7202	-181.657	-40.6504	18.7328	-182.299	-24.6519	37.4897	-209.196	-18.2294	34.5046	-221.752	-44.4975	1.79382	-246.559	-46.0661	16.8086	-243.242	-20.9504	-1.52097	
84	0.7	-242.658	6.87883	18.1381	-225.585	27.5954	18.0931	-215.633	45.8799	10.8206	-210.871	58.5787	8.31902	-191.615	6.27864	-24.103	-162.914	13.6181	-22.5598	-145.928	24.3707	-17.7525	-175.246	-2.33131	-9.15435	-163.808	5.11758	15.2859	-193.985	2.40019	30.6438	-173.097	-18.6897	6.4103	-178.275	-4.46796	31.004	-205.416	-10.2967	33.649	-175.545	-30.3458	15.356	-179.299	-19.9161	36.6559	-205.408	-16.6307	35.2615	-216.693	-44.0946	-1.016	-242.149	-46.7548	17.5923	-241.192	-20.7201	-0.147471	
85	0.708333	-243.597	3.40192	23.9889	-227.232	24.4479	20.9768	-219.084	42.5811	14.7682	-220.127	60.3656	10.8722	-190.919	11.3841	-22.3418	-170.653	20.9869	-22.3916	-149.416	34.5055	-14.4544	-177.293	3.0155	-10.184	-167.529	14.4929	17.3699	-192.035	5.17465	31.0606	-169.644	-12.9802	6.24826	-175.798	1.25293	29.7401	-201.949	-11.992	35.8521	-167.701	-25.8496	16.3393	-175.306	-14.3571	34.5875	-204.189	-20.2977	37.518	-211.95	-42.6611	1.76187	-233.333	-47.2309	15.2789	-239.799	-22.8251	4.80593	
86	0.716667	-241.213	-2.5511	27.0923	-231.29	23.8907	24.4833	-228.716	43.4198	19.6993	-229.179	62.2352	13.2066	-193.447	14.2997	-20.1109	-173.187	32.9724	-22.6012	-153.102	47.1742	-11.5672	-175.973	4.93676	-8.81119	-166.161	20.1655	14.5909	-193.221	4.23968	32.4659	-169.682	-4.73713	6.03546	-174.725	3.52559	33.0096	-195.971	-8.05858	37.8846	-166.981	-18.5393	13.6654	-175.707	-7.32119	33.9908	-196.8	-18.7302	38.5985	-205.687	-41.0196	4.26481	-225.71	-48.6883	15.5331	-235.262	-24.7053	5.07608	
87	0.725	-238.852	-4.20627	29.291	-233.658	22.8837	27.2453	-228.743	40.9667	19.6698	-237.448	58.1278	18.4536	-193.009	19.5609	-20.7725	-175.95	36.4316	-21.3806	-159.066	55.0878	-11.7429	-176.084	14.9947	-8.94547	-168.406	28.6905	16.0254	-188.285	11.8888	33.2786	-165.155	-0.616499	6.23977	-171.723	10.5578	30.8517	-194.587	-6.1056	37.3636	-163.201	-12.9594	13.963	-171.187	-4.80625	37.3381	-191.698	-17.1692	38.3773	-198.438	-39.8037	2.80851	-217.447	-52.6617	20.9806	-228.608	-27.6903	6.95765	
88	0.733333	-234.354	-5.20257	27.9057	-231.617	19.0932	27.8522	-235.324	43.0575	19.9359	-238.71	58.6073	16.7361	-193.584	20.1679	-18.7412	-176.935	45.0061	-20.1226	-162.628	59.0566	-12.3484	-170.873	18.6614	-6.87246	-167.526	31.1551	19.3861	-187.085	16.092	34.9023	-162.768	3.19266	7.28039	-169.459	15.3069	30.498	-189.167	-2.70992	39.0326	-158.747	-6.28629	14.6771	-167.135	1.91929	35.2755	-186.141	-13.8145	40.4595	-193.308	-36.6121	4.13857	-206.844	-51.9206	20.0712	-220.477	-25.2076	5.583	
89	0.741667	-229.285	-6.90763	28.6535	-229.437	17.7224	28.1498	-232.75	39.5088	21.4533	-241.526	52.2147	21.3146	-191.916	23.7535	-17.821	-177.903	47.7413	-18.1835	-167.348	69.0729	-10.8719	-170.367	23.0837	-5.20994	-170.49	36.7658	21.0491	-186.645	15.173	36.879	-162.18	11.5593	7.92752	-167.867	19.0236	33.8373	-188.357	0.697999	38.2337	-152.702	-3.90461	16.2523	-165.567	5.65365	37.1744	-186.092	-10.8755	35.9147	-183.45	-34.5864	5.49268	-197.976	-51.745	21.3532	-215.419	-26.583	5.89492	
90	0.75	-229.709	-8.67958	30.958	-227.17	16.8197	29.7838	-237.115	40.0846	23.9258	-243.599	53.0388	20.7002	-191.034	24.1409	-17.0928	-180.801	47.0924	-18.3468	-168.834	71.3103	-8.91059	-173.007	23.2917	-4.21034	-169.116	39.973	20.6981	-187.203	15.2975	37.4839	-162.24	14.4226	7.64784	-168.77	22.9025	35.1205	-186.421	-2.90764	39.8068	-150.038	4.95214	20.3072	-164.035	11.5151	36.9376	-182.022	-5.78329	37.9079	-182.432	-28.5917	5.99885	-189.712	-47.2186	21.4766	-213.023	-27.1598	7.09725	
91	0.758333	-227.331	-9.13825	30.3544	-231.177	15.8785	31.6878	-238.17	35.871	27.5746	-244.448	48.7766	25.0461	-192.579	33.0499	-16.68	-182.072	52.0439	-15.864	-174.226	74.7461	-8.30402	-175.388	28.399	-3.14675	-173.945	42.2894	27.1677	-186.813	16.331	39.3204	-160.315	23.9934	12.3493	-166.876	24.9614	37.182	-182.024	1.00552	41.7935	-150.998	7.1719	17.6048	-162.397	12.5377	40.6252	-179.67	-8.4832	40.5469	-177.656	-25.1558	4.27039	-186.749	-44.3617	18.932	-205.792	-24.1411	7.54888	
92	0.766667	-223.992	-9.82393	31.7911	-226.226	14.1737	33.109	-237.856	36.4294	26.213	-244.907	49.7671	23.8205	-192.899	31.8247	-13.6964	-184.946	57.4168	-14.8889	-178.061	76.269	-8.35439	-171.64	32.7829	0.183049	-172.458	43.919	28.448	-188.728	17.0254	40.1678	-158.959	26.2244	14.1543	-169.192	26.7993	40.3286	-183.32	5.27362	42.9	-148.889	14.8327	21.0668	-162.878	16.9713	41.8358	-179.056	-5.70438	38.7444	-170.889	-22.104	6.02247	-184.3	-43.4618	22.0383	-200.173	-25.8488	10.8391	
93	0.775	-220.026	-10.1492	31.5464	-226.812	17.0011	31.3157	-235.511	33.4711	28.9842	-249.762	44.9427	27.8873	-197.421	34.393	-13.9157	-190.519	58.6513	-14.0587	-184.651	83.8496	-7.98959	-175.75	40.689	3.68474	-176.704	48.4427	30.2746	-185.694	18.496	41.8875	-160.099	32.3576	17.6785	-169.956	31.0422	40.0046	-184.809	5.07042	41.4144	-152.499	21.1447	21.1348	-165.512	20.4013	42.6629	-177.26	-3.96938	38.7192	-172.062	-17.2986	3.71806	-180.661	-37.4553	20.3325	-199.223	-23.5783	8.19084	
94	0.783333	-216.461	-10.8505	30.5985	-229.78	15.5803	33.6692	-240.231	36.1088	27.9296	-248.963	45.4583	27.4507	-199.104	40.6075	-13.6497	-191.305	61.5005	-13.6636	-189.946	83.7442	-8.71865	-179.45	44.3578	3.67527	-182.567	50.6724	32.6427	-187.589	18.6854	42.5546	-163.369	36.0507	16.7398	-174.125	35.2866	39.523	-182.442	5.1976	43.0901	-153.891	25.8377	22.424	-161.598	24.0257	44.4634	-177.063	-0.999906	41.6642	-170.712	-12.8842	6.10877	-175.521	-35.9879	18.9452	-194.725	-20.9677	8.19483	
